# xmcd
#
# Track frame offsets: 
#        300
#        21042
#        45254
#        63072
#        99568
#        124086
#        143356
#        161651
#        177769
#        211534
#        233345
#
# Disc length: 3135 seconds
#
# Revision: 0
# Processed by: cddbd v1.5.2PL0 Copyright (c) Steve Scherf et al.
# Submitted via: ExactAudioCopy v0.99pb5
#
DISCID=770c3b0b
DTITLE=Bronco Bob - The Birds The Bees The Blues
DYEAR=2003
DGENRE=General Blues
TTITLE0=It Ain't The Same Thang
TTITLE1=Over and Over
TTITLE2=I Just Want To Make Love To You
TTITLE3=I'll Play The Blues For You
TTITLE4=Only In It For The Money
TTITLE5=Murder In The First Degree
TTITLE6=Lead Me On
TTITLE7=I Don't Want Love
TTITLE8=Mustang Sally
TTITLE9=Born Under A Bad Sign
TTITLE10=Bass Diddy
EXTD=
EXTT0=
EXTT1=
EXTT2=
EXTT3=
EXTT4=
EXTT5=
EXTT6=
EXTT7=
EXTT8=
EXTT9=
EXTT10=
PLAYORDER=
